<svg version="1.1" xmlns="http://www.w3.org/2000/svg"
	 viewBox="0 0 1362 342">

<defs>
	<style type="text/css">
		.st0 {
			fill: rgba(0, 0, 0, 0);
			stroke: #6575a1;
			stroke-width: 4;
			stroke-miterlimit: 10;
			stroke-dasharray: 9000;
			stroke-dashoffset: 9000;
			animation: dash 6s ease-in forwards;
		}

		@keyframes dash {
			to {
				stroke-dashoffset: 0;
				fill : #6575a1;
			}
		}

	</style>

</defs>

<g>
	<path class="st0" d="M314.6,18.5l-0.2,2.2c-11.1,0.8-21,2.7-29.8,5.8c-6.5,2.3-14.9,6.4-25.2,12.4c-5.6,3.3-11.9,10.5-18.8,21.6
		c-7.5,12-14.7,25.3-21.6,39.8c-9.1,19.2-13.6,32.9-13.6,41c0,6.3,2.1,9.4,6.4,9.4c3.6,0,7.6-3.1,12-9.2c2.8-3.9,4.7-7.1,5.6-9.8
		c0.1,0,0.9-0.1,2.2-0.4c-6.9,14.8-14.5,22.2-22.6,22.2c-4.9,0-8.9-1.9-11.8-5.6c-2.9-3.7-4.4-8.6-4.4-14.6
		c0-16.3,14.1-42.4,42.4-78.2c-12.8,9.9-24.1,21-34,33.1c-6.3,7.8-15.7,20.8-28.2,39c-9.9,14.3-16.7,23.7-20.6,28.1
		c-0.7-1.1-1-1.9-1-2.6c2-5.1,3.7-9.7,5.2-13.8c0.9-2.7,1.4-7.1,1.4-13.2c0-21.6,0.8-36.8,2.4-45.6c1.5-7.9,5.1-17.9,10.8-30
		c-7.5,7.9-15.5,21.2-24.2,40c-4,9-10.2,22.4-18.6,40.1c-3.6,7.5-10.9,13.7-21.8,18.7c-9.6,4.3-19.1,6.4-28.4,6.4
		c-14.3,0-26.9-4.4-38-13.1c-12.1-9.4-18.2-21-18.2-34.9c0-14.5,4.7-26.8,14-36.9c9.3-10.2,20.4-15.3,33.2-15.3
		c10.4,0,19.5,3.3,27.3,9.8c7.8,6.5,11.7,14.9,11.7,25c0,9.5-3.6,18.1-10.7,26c-7.1,7.9-15.4,11.8-24.7,11.8
		c-7.5,0-13.3-2.5-17.6-7.5c-4.3-5-6.4-11.6-6.4-19.7c0-4,1.3-9.8,4-17.4l2.4,0.6c-2.8,6.8-4.2,12.4-4.2,16.8c0,7.5,2,13.5,6,18.1
		s9.3,6.9,15.8,6.9c8.7,0,16.4-3.7,23.1-11.2c6.7-7.5,10.1-15.6,10.1-24.4c0-9.5-3.7-17.3-11.1-23.4c-7.4-6.1-15.9-9.2-25.6-9.2
		c-12.8,0-23.6,5.2-32.5,15.5c-8.4,9.9-12.6,21.4-12.6,34.5c0,10.8,4.5,20.8,13.4,29.7c10.6,10.7,24.2,16.1,40.8,16.1
		c19,0,36.2-14,51.5-41.9c14.9-27,25.1-44.7,30.6-53.2c9.1-13.8,17.6-23.1,25.8-28.1c-20.4-7-32.9-10.4-37.4-10.4
		c-12,0-21.7,2.3-29.2,7c-8.9,5.6-13.4,13.9-13.4,25c0,6.4,1.9,11.9,5.6,16.4c3.7,4.5,8.3,6.8,13.8,6.8c4,0,7.4-1.4,10.2-4.2h1.2
		c-4.1,6.1-8.8,9.2-14,9.2c-6.7,0-12.2-2.4-16.6-7.2c-4.4-4.8-6.6-10.8-6.6-18c0-12.9,5.1-22.5,15.4-28.8c8.5-5.2,19.7-7.8,33.6-7.8
		c4.1,0,17.2,3.6,39.2,10.8c2.8-1.6,5.4-2.4,7.8-2.4c2.8,0,4.2,1,4.2,3c0,2.3-1.5,3.4-4.6,3.4c-1.3,0-2.7-0.3-4-1
		c-5.3,7.2-8.9,18-10.6,32.4c-0.4,3.7-0.6,8.8-0.6,15.2c0.1,7.6,0.1,12.7,0,15.2c-0.5,4.1-3.1,13.1-7.8,27
		c27.5-39.9,55.9-68.1,85.2-84.6c12-6.8,20.3-11,24.8-12.6C291,21.3,301.7,19.3,314.6,18.5z"/>
	<path class="st0" d="M325.4,106.5c-4.5,5.6-12.7,11.7-24.6,18.4c-2,0.8-5,1.8-9,3c-4.1,6.8-9.8,12.6-17,17.4
		c-7.7,5.1-15.3,7.6-22.6,7.6c-4.5,0-8.3-2-11.2-6c-2.7-3.6-4-7.7-4-12.4c0-11.3,4.7-21.6,14.1-30.7c9.4-9.1,19.8-13.7,31.1-13.7
		c4.7,0,8.5,1.8,11.6,5.4c3.1,3.6,4.6,8.1,4.6,13.4c0,3.2-0.6,6.3-1.8,9.2c-0.5,1.3-1.5,3.6-3,6.8c1.1-0.1,3.1-0.9,6-2.2
		c7.2-3.3,15.3-9.2,24.2-17.6L325.4,106.5z M286.4,97.4c0-3.4-1.6-5-4.8-5c-6.3,0-13.5,7-21.6,21.1c-7.7,13.1-11.6,23.2-11.6,30.3
		c0,4.4,1.3,6.6,3.8,6.6c6.9,0,15.2-8,24.8-24c-7.3-2.4-11-5.7-11-9.8c0-4.3,2.1-6.4,6.2-6.4c2.8,0,4.2,1.4,4.2,4.2
		c0,2.3-1.8,3.6-5.4,4c0.9,3.3,3.5,5.3,7.6,6C283.8,113.2,286.4,104.2,286.4,97.4z"/>
	<path class="st0" d="M384,106.5c-9.2,14-16.6,23.9-22.2,29.6c-10.7,11.2-21.2,16.8-31.6,16.8c-6.9,0-10.5-4.9-10.6-14.6
		c0-3.2,2.8-9.5,8.3-18.8c5.5-9.3,8.3-14.7,8.3-16c0-0.9-0.3-1.4-0.8-1.4c-0.9,0-2.6,1-5.1,3.1c-2.5,2.1-5,3.1-7.5,3.1
		c-3.2,0-4.8-2.5-4.8-7.6c0-3.1,1.2-6.4,3.5-9.9c2.3-3.5,5-5.3,7.9-5.3c3.2,0,4.8,1.5,4.8,4.6c0,3.7-2.3,8.3-7,13.8
		c4.3-3.6,8.4-6.9,12.4-10c3.2-2.5,6.1-3.8,8.6-3.8c2,0,3.7,0.8,5,2.3c1.3,1.5,2,3.4,2,5.5c0,1.7-1.4,5-4.2,9.8l-15.8,27
		c-2.5,4.3-3.8,7-3.8,8.2c0,3.6,1.7,5.4,5.2,5.4c10.5,0,25.8-14.4,45.8-43.2L384,106.5z M331.2,90.3c0-1.2-0.6-1.8-1.8-1.8
		c-2,0-3.9,1.5-5.6,4.5c-1.7,3-2.6,5.6-2.6,7.7c0,2.3,0.7,3.4,2.2,3.4C328.6,97.5,331.2,92.9,331.2,90.3z"/>
	<path class="st0" d="M453.4,106.5c-10.5,18.9-27.8,36-51.8,51.2c-1.9,5.1-4.8,12.5-8.7,22.3c-3.9,9.8-8.3,17.6-13.1,23.3
		c-5.9,7.1-12.5,10.6-19.8,10.6c-4.9,0-9.1-1.4-12.6-4.3c-3.5-2.9-5.2-6.4-5.2-10.7c0-8.1,6-16.3,18-24.4
		c8.4-5.7,17.9-10.5,28.4-14.2l6-15.6c-4.7,5.5-8.7,8.2-12,8.2c-9.5,0-14.2-6.5-14.2-19.4c0-10.3,4.5-20.1,13.5-29.4
		c9-9.3,18.6-14,28.9-14c3.1,0,5.7,1.2,7.8,3.6c1.9-1.2,3.3-1.8,4.2-1.8c1.7,0,4.3,0.6,7.6,1.8c0.3,0,1.3-0.9,3.2-2.6
		c1.9-1.7,3.2-2.9,4-3.4c-5.2,7.7-11.6,18.4-19.2,32c-3.7,6.8-9.1,18.3-16,34.4c21.7-14,38.2-30.3,49.4-49L453.4,106.5z
		 M387.6,163.5c-8.8,2.5-17.9,7.3-27.2,14.2c-10.1,7.5-15.2,14.3-15.2,20.6c0,2.3,0.8,4.1,2.4,5.6c1.6,1.5,3.6,2.2,6,2.2
		c6.8,0,13.9-5.5,21.2-16.6C380.3,181.4,384.6,172.7,387.6,163.5z M415.4,96.9c0-2.5-1.2-3.8-3.6-3.8c-6,0-12.9,7.1-20.8,21.4
		c-7.3,13.2-11,23.3-11,30.2c0,3.3,1.2,5,3.6,5c4.5,0,11.1-7.9,19.8-23.8C411.4,111.1,415.4,101.5,415.4,96.9z"/>
	<path class="st0" d="M538.8,106.5c-25.3,30.9-42.9,46.4-52.6,46.4c-6.5,0-11.6-3.9-15.2-11.6c-5.7,7.7-12.1,11.6-19,11.6
		c-8.9,0-13.4-6.5-13.4-19.6c0-10,4.1-19.5,12.4-28.4c9.1-9.9,19.8-14.8,32.2-14.8c4.7,0,8.1,1.6,10.2,4.8c1.6-2,3-3,4.2-3
		c0.5,0,1.9,0.2,4.2,0.6c2.3,0.4,3.7,0.6,4.2,0.6c0.5,0,1.6-0.9,3.3-2.6c1.7-1.7,2.8-2.7,3.3-2.8l-26.2,49.2
		c-2.3,4.3-3.4,7.3-3.4,9.2c0,2.7,1.5,4,4.4,4c4.4,0,13.1-6.5,26.2-19.4c9.2-9.1,17.1-17.6,23.6-25.6L538.8,106.5z M490.4,98.5
		c0-3.2-1.4-4.8-4.2-4.8c-7.9,0-16.1,6.9-24.6,20.6c-7.6,12.3-11.4,22-11.4,29.2c0,4.4,1.3,6.6,4,6.6c5.3,0,10.6-4.4,15.8-13.2
		C483.6,113.7,490.4,100.9,490.4,98.5z"/>
	<path class="st0" d="M615.8,106.5c-2,2.4-12.3,13.9-30.8,34.6c-7.2,8-13.9,12-20.2,12c-7.3,0-11.2-4-11.6-12
		c-0.1-3.6,1.3-7.7,4.2-12.2l16.6-25.4c1.9-2.8,2.8-4.8,2.8-6c0-1.2-1-1.8-3-1.8c-5.1,0-11.7,4.7-20,14
		c-5.9,6.8-10.8,13.7-14.8,20.6c-1.7,3.2-4.3,7.9-7.6,14c-2.4,4.5-4.6,6.8-6.6,6.8c-0.7,0-2-0.3-3.9-0.8c-1.9-0.5-3.1-0.8-3.5-0.8
		c-1.1,0-3.5,1.9-7.4,5.8l30.6-58.6c1.7-3.2,3.7-4.8,6-4.8c0.9,0,2.2,0.3,3.9,0.8c1.7,0.5,2.7,0.8,3.1,0.8c0.3,0,1.4-0.9,3.3-2.6
		c1.9-1.7,3.3-2.8,4.1-3.2l-10.2,19.2c12.8-11.2,22.8-16.8,30-16.8c6.1,0,9.2,3.1,9.2,9.2c0,3.2-1.3,6.8-3.8,10.8l-18.6,29
		c-2.4,3.7-3.6,6-3.6,6.8c0,2.4,1.4,3.6,4.2,3.6c3.9,0,9.4-4,16.6-12l29.4-32.4L615.8,106.5z"/>
	<path class="st0" d="M677.4,106.5c-4.7,7.9-12.5,16.9-23.4,27c-14.1,12.9-26,19.4-35.6,19.4c-5.1,0-9.2-1.7-12.5-5.1
		c-3.3-3.4-4.9-7.6-4.9-12.7c0-12.8,5.7-23.8,17-33c9.9-8,19.4-12,28.6-12c3.1,0,5.7,1.1,8,3.2c2.3,2.1,3.4,4.7,3.4,7.8
		c0,8.4-6.1,15.4-18.2,20.9c-9.2,4.3-16.9,6.4-23.2,6.4c-2.4,5.2-3.6,9.8-3.6,14c0,4.9,1.8,7.4,5.4,7.4c8.8,0,20-6,33.6-17.9
		c10.8-9.6,18.7-18.4,23.8-26.7L677.4,106.5z M648,97.3c0-3.1-1.4-4.6-4.2-4.6c-6.4,0-14.8,10.3-25.2,31c5.3,0,11.7-3.5,19-10.4
		C644.6,106.8,648,101.5,648,97.3z"/>
	<path class="st0" d="M866.2,26.9c0,5.7-4,13.4-12,23c-7.2,8.7-11.3,13-12.4,13c3.2,20.1,4.8,33.8,4.8,41c0,13.5-5,24.9-15,34.2
		c-10,9.3-21.8,14-35.4,14c-12.4,0-22.9-4.2-31.6-12.7c-8.7-8.5-13-18.9-13-31.3c0-12,4.6-23.7,13.8-35c-2.4-3.1-4.3-7.2-5.8-12.4
		c-6.8,3.5-12.7,8.5-17.6,15.2c-8.3,11.1-12.4,24.3-12.4,39.8c0,17.5,6.2,32.5,18.6,45.1c12.4,12.6,27.3,18.9,44.8,18.9
		c15.2,0,29.8-5.8,43.8-17.4v1.6c-12.4,12-27,18-43.8,18c-17.9,0-33.3-6.5-46.2-19.6c-12.9-13.1-19.4-28.6-19.4-46.6
		c0-16.4,4.5-30.3,13.6-41.8c4-5.1,10.1-10.3,18.2-15.6c0-14.1,6.8-26.3,20.4-36.4c12.5-9.3,26.5-14,41.8-14
		c13.3,0,22.7,3.5,28.2,10.6c1.7-1.6,4.9-2.4,9.4-2.4C863.8,16.9,866.2,20.5,866.2,26.9z M835.6,76.3v-9.6c-3.5,2.4-8.8,5.5-16,9.4
		c2.7,5.1,4,10.7,4,17c0,6.1-3,11.7-9,16.6c-6,4.9-12.1,7.4-18.4,7.4c-4.3,0-7.9-1.4-10.8-4.1c-2.9-2.7-4.4-6-4.4-9.9
		c0-3.9,1.2-7.1,3.7-9.8c2.5-2.7,5.4-4,8.9-4c3.1,0,6.1,2.5,9,7.4c-7.5,0.7-11.2,3.1-11.2,7.2c0,5.6,3,8.4,9,8.4
		c5.6,0,10.4-2.3,14.4-6.9c4-4.6,6-9.8,6-15.5c0-4.1-1.1-8.3-3.2-12.6c-8.8,4.1-17,6.2-24.5,6.2c-12.6,0-21.4-2.9-26.3-8.6
		c-8.8,10.9-13.1,22-13,33.2c0.1,7.5,2.7,15.1,7.6,22.8c6.7,10.4,15.7,15.6,27.1,15.6c14.2,0,26-8.5,35.3-25.6
		C831.7,106.5,835.6,91.7,835.6,76.3z M847.8,19.3c-5.7-6.5-14.5-9.7-26.4-9.7c-12.7,0-25.2,4.1-37.6,12.2
		c-14.5,9.6-22,21.6-22.4,36c2.8-2,5.8-3.8,9-5.3c7.6-3.6,16.6-6.1,27-7.5c13.7-1.8,26.9-2.6,39.6-2.6c0-4.1,0.9-8.4,2.8-12.9
		C842,24.2,844.6,20.9,847.8,19.3z M836.8,44.5c-12.7,0.3-25.5,1.1-38.5,2.4c-10.2,1.1-19.1,3.5-26.9,7.2c-2.1,1.2-5.5,3.1-10,5.6
		c1.5,5.2,3.3,9.1,5.6,11.8c8-6.4,16.8-9.6,26.5-9.6c5.6,0,10.2,0.9,13.8,2.8c3.1,1.6,6.8,4.7,11,9.2c4.7-2,10.5-5.4,17.4-10.2
		L836.8,44.5z M816,75c-5.7-7.5-13.2-11.3-22.4-11.3c-10.3,0-18.6,3.2-25,9.5c4.7,5.4,12.8,8.1,24.4,8.1
		C800.5,81.3,808.2,79.2,816,75z M860.8,25.3c0-4.5-1.7-6.8-5.2-6.8c-0.7,0-1.6,0.3-2.7,1c-1.1,0.7-1.8,1-2.1,1
		c1.2,2.1,1.8,4.6,1.8,7.4c0,3.7-1.2,7.3-3.5,10.6c-2.4,3.3-5,5.3-7.9,6l0.4,15C854.4,47.7,860.8,36.3,860.8,25.3z M849,21.7
		c-5.2,6.5-7.8,13.3-7.8,20.2c2.1-0.3,4.2-1.9,6.2-4.9s3-6.2,3-9.5C850.4,25.4,850,23.5,849,21.7z"/>
	<path class="st0" d="M892.6,140.1c0,3.1-1.2,5.8-3.6,8.2c-2.4,2.4-5.1,3.6-8,3.6c-5.6,0-8.4-3.3-8.4-9.8c0-3.1,1.2-5.8,3.6-8.3
		c2.4-2.5,5.1-3.7,8-3.7C889.8,130.1,892.6,133.5,892.6,140.1z"/>
</g>
</svg>
