<svg version="1.1" xmlns="http://www.w3.org/2000/svg"
	 viewBox="0 0 1759.5 214.5">

<defs>
	<style type="text/css">
		.st0 {
			fill: rgba(0, 0, 0, 0);
			stroke: #6575a1;
			stroke-width: 3;
			stroke-miterlimit: 5;
			stroke-dasharray: 9000;
			stroke-dashoffset: 9000;
			animation: dash 4s 3s ease-in forwards;
		}

		@keyframes dash {
			to {
				stroke-dashoffset: 0;
				fill : #6575a1;
			}
		}

	</style>

</defs>

<g>
	<path class="st0" d="M196,40.1c0,8-2.6,15.2-7.9,21.7c-5.7,7-12.4,10.4-20.2,10.4c-6.6,0-12.3-2.1-16.9-6.2c-4.6-4.2-7-9.5-7-16.1
		c0-9.7,5.6-16.7,16.7-21l0.4,1.1c-10.5,4.4-15.7,11.1-15.7,20c0,5.8,1.9,10.6,5.7,14.4c4.2,4.3,9.8,6.5,16.8,6.5
		c7.1,0,13.4-3.4,18.9-10.2c5.1-6.4,7.7-13.3,7.7-20.6c0-7.2-2.3-13-7-17.4c-4.7-4.4-10.6-6.6-17.8-6.6c-10.4,0-19.2,2.9-26.4,8.8
		c-5.2,4.2-11.5,12-19,23.3c-4.2,6.5-11,15.6-20.3,27.2C93.6,88.5,87.5,95,85.5,95c-0.7,0-1.1-0.2-1.1-0.7c0-0.6,1.3-3.6,3.8-9.1
		C90,81.5,91,76,91.3,68.8c0.1-1.6,0.1-10,0.1-25.3C86.9,51.2,81.1,59.7,74.2,69c-3.2,4.3-8.3,10.1-15.4,17.4
		c-5.6,5.7-9,8.6-10.2,8.6c-0.9,0-1.3-0.4-1.3-1.3c3.6-6.4,5.7-11.3,6.2-14.7c1.1-6.8,1.7-17.7,1.7-32.6c0-5.4,1.7-10.9,5-16.5
		c0.6-1.1,3.4-4.7,8.2-10.8c-9.4-4.8-17.6-7.2-24.4-7.2c-7,0-12.6,1.8-17,5.5c-4.7,3.8-7.1,9.2-7.1,16c0,2.6,0.5,4.8,1.6,6.6
		c1,1.8,3,3.8,6,6v0.7c-7.4-2.9-11.2-7.7-11.2-14.4c0-7.1,3-12.6,8.9-16.3c5-3.2,11.3-4.8,18.8-4.8c4.6,0,10.2,1.2,16.6,3.6
		c5.7,2.2,8.5,3.3,8.5,3.5c2.1-1.9,3.8-2.9,5.2-2.9c1.9,0,2.9,0.5,2.9,1.6c0,0.9-0.8,1.6-2.3,2.2c-1.5,0.6-3.3,0.9-5.3,0.9
		c-3.8,3.9-5.8,7-5.8,9.1c0,3.4,0.5,8.3,1.4,14.8c1,6.5,1.4,11.4,1.4,14.7c0,5.6-4.7,15.9-14,31c2.6-2.4,5.8-5.6,9.6-9.5
		c4.7-4.8,8.6-9.2,11.6-13.2c7-9.3,14.8-22.1,23.4-38.5c1.3-2.5,3.9-5.5,7.9-9c-3.1,5.4-4.7,10.2-4.7,14.4c0,2.8,0.4,6.9,1.3,12.4
		c0.9,5.5,1.3,9.6,1.3,12.4c0,3.9-0.8,7.9-2.5,11.8c-1.7,4-4.9,9.8-9.6,17.6c3-3.4,8.6-10,16.7-19.7c7.7-9.6,15.1-20.7,22.3-33.2
		c3.4-5.8,8.7-10.9,16-15.3c7.3-4.4,14.3-6.5,20.9-6.5c8.2,0,15,2.4,20.4,7.2C193.1,25.5,196,32.1,196,40.1z M75.6,17
		c0-0.7-0.4-1-1.3-0.9c-1.4,0.1-2.6,0.9-3.6,2.4C74,18.5,75.6,18,75.6,17z"/>
	<path class="st0" d="M163.3,66.2c-2.8,4.7-7.5,10.1-14,16.2c-8.5,7.8-15.6,11.6-21.4,11.6c-3,0-5.5-1-7.5-3.1c-2-2-2.9-4.6-2.9-7.6
		c0-7.7,3.4-14.3,10.2-19.8c5.9-4.8,11.6-7.2,17.2-7.2c1.8,0,3.4,0.6,4.8,1.9c1.4,1.3,2,2.8,2,4.7c0,5-3.6,9.2-10.9,12.6
		c-5.5,2.6-10.2,3.8-13.9,3.8c-1.4,3.1-2.2,5.9-2.2,8.4c0,3,1.1,4.4,3.2,4.4c5.3,0,12-3.6,20.2-10.8c6.5-5.7,11.2-11.1,14.3-16
		L163.3,66.2z M145.7,60.7c0-1.8-0.8-2.8-2.5-2.8c-3.8,0-8.9,6.2-15.1,18.6c3.2,0,7-2.1,11.4-6.2C143.6,66.3,145.7,63.1,145.7,60.7z
		"/>
	<path class="st0" d="M211.3,66.2c-5.6,7.5-13,11.4-22.3,11.5c-2.2,3.8-5.7,7.4-10.7,10.8c-5.2,3.7-9.8,5.5-13.8,5.5
		c-2.4,0-4.3-0.8-5.8-2.5c-1.4-1.7-2.2-3.9-2.2-6.6c0-6.2,2-13.6,6-22.4c3.1-6.8,6.8-13.1,11-19C187,25.2,197.2,16,204.1,16
		c1,0,1.9,0.5,2.6,1.6c0.7,1,1.1,2.2,1.1,3.5c0,7.3-4.6,15.3-13.7,24c-7,6.7-12.8,11-17.3,12.7c-1.8,3.6-4.6,8.9-8.4,16
		c-4,7.7-6,12.7-6,15c0,2.4,1.3,3.6,3.8,3.7c2.1,0.1,4.9-2,8.4-6.2c2.9-3.4,5-6.7,6.5-9.7c-2.9-1.6-4.3-4.6-4.3-9.1
		c0-3,0.6-5.6,1.9-7.8c1.3-2.2,2.9-3.2,4.8-3.2c6,0,9,3,9,9.1c0,4.4-1,8.1-2.9,11c8.4-0.2,15.3-3.9,20.6-11L211.3,66.2z M202.8,22.3
		c0.1-2.5-0.4-3.7-1.3-3.7c-1.4,0-4.3,3-8.5,9.1c-2.9,4.2-5.3,8-7.2,11.4c-2.6,4.7-5.4,10.3-8.2,16.7c6.6-3.4,12.7-9.5,18.2-18.2
		C200.4,30.2,202.7,25.1,202.8,22.3z M185.2,62.6c0-2.9-0.8-4.3-2.3-4.3c-1.2,0-2.2,0.9-3.1,2.7c-0.8,1.8-1.3,3.9-1.3,6.4
		c0,3.4,1.1,6,3.4,7.7c0.5-1.1,1.2-2.8,2-5.2C184.8,67.8,185.2,65.4,185.2,62.6z"/>
	<path class="st0" d="M311.3,21.1c0,5.8-4.5,13.5-13.6,23c-8.2,8.7-15.6,14.6-22.1,17.6c-9,16.7-13.6,26-13.6,27.7c0,2,0.8,3,2.5,3
		c2.4,0,6.2-2.4,11.3-7.3c3.6-3.4,9.8-10,18.6-19.8l1,0.8C285.9,77,279.4,84,276,87.2c-5,4.8-9,7.2-11.9,7.2c-2.6,0-4.5-0.6-5.9-1.7
		c-1.4-1.2-2.6-3.3-3.7-6.4c-2.8,3.4-4.6,5.5-5.5,6.1c-1.4,1.1-3.2,1.7-5.4,1.7c-2.4,0-4.5-1.1-6.2-3.3c-1.7-2.2-2.6-4.7-2.6-7.6
		c0-7.5,2.8-13.9,8.5-19.2c5.5-5,12.1-7.6,19.7-7.6c1.9,0,4,1.1,6.1,3.2c5.6-9.6,11.2-17.9,16.7-25c9.2-11.8,16.5-17.8,22-17.8
		C310.1,16.9,311.3,18.3,311.3,21.1z M266.7,61.1c0-0.8-0.4-1.5-1.2-2.2c-0.8-0.7-1.6-1-2.4-1c-3.6,0-8.2,4.2-13.7,12.5
		c-5.3,8-7.9,14-7.9,18c0,2.7,0.9,4.1,2.6,4.1c2.2,0,4.3-1.3,6.2-3.8c0.1-0.1,2.2-3.1,6.4-9C263.3,70.2,266.7,64,266.7,61.1z
		 M306.3,21.9c0-1.8-0.7-2.6-2.2-2.6c-3,0-11.8,12.9-26.4,38.6c8.2-4.9,15.1-11.3,20.8-19.1C303.7,31.6,306.3,26,306.3,21.9z"/>
	<path class="st0" d="M332.4,66.2c-2.8,4.7-7.5,10.1-14,16.2C309.9,90.1,302.8,94,297,94c-3,0-5.5-1-7.5-3.1c-2-2-2.9-4.6-2.9-7.6
		c0-7.7,3.4-14.3,10.2-19.8c5.9-4.8,11.6-7.2,17.2-7.2c1.8,0,3.4,0.6,4.8,1.9c1.4,1.3,2,2.8,2,4.7c0,5-3.6,9.2-10.9,12.6
		c-5.5,2.6-10.2,3.8-13.9,3.8c-1.4,3.1-2.2,5.9-2.2,8.4c0,3,1.1,4.4,3.2,4.4c5.3,0,12-3.6,20.2-10.8c6.5-5.7,11.2-11.1,14.3-16
		L332.4,66.2z M314.8,60.7c0-1.8-0.8-2.8-2.5-2.8c-3.8,0-8.9,6.2-15.1,18.6c3.2,0,7-2.1,11.4-6.2C312.7,66.3,314.8,63.1,314.8,60.7z
		"/>
	<path class="st0" d="M362.2,66.2c-5,8.6-9.8,14.4-14.4,17.5c-3,2.1-6.9,3.5-11.6,4.2c-3.7,4.3-8.1,6.5-13.3,6.5
		c-6.3,0-9.5-2.8-9.5-8.5c0-1.9,0.5-3.5,1.6-4.8c1.1-1.3,2.5-1.9,4.1-1.9c1.3,0,2.8,0.7,4.4,2.2c2.1,1.8,3.4,2.9,4.1,3.1
		c1.3-1,2.3-2.5,3.2-4.7c0.8-2.2,1.3-4.1,1.3-5.9c0-1-0.4-2.9-1.1-5.5c-0.8-2.6-1.1-4.7-1.1-6.2c0-2.6,0.4-5,1.3-7.2
		c1.2-2.9,2.9-4.3,5-4.3c2,0,3,0.7,3,2.2c0,1.8-1.2,4.8-3.7,9.2c2.4,5.5,3.6,9.9,3.6,13.1c0,5-0.7,8.6-2.2,10.9
		c4.8-1,8.6-2.6,11.3-4.7c4-3,8.4-8.4,13.1-16.1L362.2,66.2z M326.4,85.6c-0.6-0.2-1.7-1.1-3.4-2.5c-1.5-1.2-2.6-1.8-3.1-1.8
		c-1.4,0-2.2,0.8-2.2,2.4c0,1.8,1.3,2.9,3.8,3.4C324.3,87.1,325.9,86.6,326.4,85.6z M337.7,53.1c0-0.9-0.5-1.3-1.4-1.3
		c-0.5,0-1,0.5-1.5,1.6c-0.5,1.1-0.8,2.2-0.8,3.4c0,1.7,0.2,3,0.7,3.8C336.7,57.9,337.7,55.3,337.7,53.1z"/>
	<path class="st0" d="M390.5,66.2C374.8,84.7,364.3,94,358.9,94c-5,0-7.4-2.4-7.4-7.1c0-3.6,1.5-8.2,4.4-13.7
		c1.7-3,4.2-7.4,7.4-13.3c1-1.7,2-2.5,3.2-2.5c1.1,0,2.1,0.2,2.8,0.5c0.8,0.4,1.2,0.5,1.3,0.5c0.3,0,1.1-0.6,2.2-1.7
		c1.2-1.2,1.9-1.8,2.3-1.9l-15.2,29c-0.7,1.4-1.1,2.9-1.1,4.6c0,2.1,0.9,3.1,2.8,3.1c1.8,0,6.7-4,14.5-11.9
		c5.8-5.9,10.3-10.7,13.3-14.4L390.5,66.2z M383.3,42.4c0,1.8-0.6,3.3-1.8,4.7c-1.2,1.4-2.6,2.1-4.1,2.1c-1.3,0-2.4-0.5-3.2-1.4
		c-0.9-0.9-1.3-2-1.3-3.3c0-1.7,0.6-3.1,1.9-4.4c1.2-1.2,2.7-1.9,4.3-1.9c1.2,0,2.2,0.4,3.1,1.2C382.9,40.3,383.3,41.3,383.3,42.4z"
		/>
	<path class="st0" d="M432.1,66.2c-6.3,11.4-16.7,21.6-31.1,30.7c-1.1,3-2.9,7.5-5.2,13.4c-2.4,5.9-5,10.5-7.9,14
		c-3.5,4.2-7.5,6.4-11.9,6.4c-3,0-5.5-0.9-7.6-2.6c-2.1-1.7-3.1-3.9-3.1-6.4c0-4.9,3.6-9.8,10.8-14.6c5-3.4,10.7-6.3,17-8.5l3.6-9.4
		c-2.8,3.3-5.2,4.9-7.2,4.9c-5.7,0-8.5-3.9-8.5-11.6c0-6.2,2.7-12,8.1-17.6c5.4-5.6,11.2-8.4,17.3-8.4c1.8,0,3.4,0.7,4.7,2.2
		c1.1-0.7,2-1.1,2.5-1.1c1,0,2.6,0.4,4.6,1.1c0.2,0,0.8-0.5,1.9-1.6c1.1-1,1.9-1.7,2.4-2c-3.1,4.6-7,11-11.5,19.2
		c-2.2,4.1-5.4,11-9.6,20.6c13-8.4,22.9-18.2,29.6-29.4L432.1,66.2z M392.7,100.4c-5.3,1.5-10.7,4.4-16.3,8.5
		c-6.1,4.5-9.1,8.6-9.1,12.4c0,1.4,0.5,2.5,1.4,3.4c1,0.9,2.2,1.3,3.6,1.3c4.1,0,8.3-3.3,12.7-10
		C388.3,111.1,390.8,105.9,392.7,100.4z M409.3,60.4c0-1.5-0.7-2.3-2.2-2.3c-3.6,0-7.8,4.3-12.5,12.8c-4.4,7.9-6.6,14-6.6,18.1
		c0,2,0.7,3,2.2,3c2.7,0,6.7-4.8,11.9-14.3C406.9,68.9,409.3,63.1,409.3,60.4z"/>
	<path class="st0" d="M478.5,66.2c-1.2,1.4-7.4,8.4-18.5,20.8c-4.3,4.8-8.4,7.2-12.1,7.2c-4.4,0-6.7-2.4-7-7.2
		c-0.1-2.2,0.8-4.6,2.5-7.3l10-15.2c1.1-1.7,1.7-2.9,1.7-3.6c0-0.7-0.6-1.1-1.8-1.1c-3,0-7,2.8-12,8.4c-3.5,4.1-6.5,8.2-8.9,12.4
		c-1,1.9-2.6,4.7-4.6,8.4c-1.4,2.7-2.8,4.1-4,4.1c-0.4,0-1.2-0.2-2.3-0.5c-1.2-0.3-1.9-0.5-2.1-0.5c-0.6,0-2.1,1.2-4.4,3.5
		l18.4-35.2c1-1.9,2.2-2.9,3.6-2.9c0.6,0,1.3,0.2,2.3,0.5c1,0.3,1.6,0.5,1.9,0.5c0.2,0,0.8-0.5,2-1.6c1.2-1,2-1.7,2.5-1.9l-6.1,11.5
		c7.7-6.7,13.7-10.1,18-10.1c3.7,0,5.5,1.8,5.5,5.5c0,1.9-0.8,4.1-2.3,6.5l-11.2,17.4c-1.4,2.2-2.2,3.6-2.2,4.1
		c0,1.4,0.8,2.2,2.5,2.2c2.3,0,5.6-2.4,10-7.2l17.6-19.4L478.5,66.2z"/>
	<path class="st0" d="M562.1,66.2C546.9,84.7,536.4,94,530.5,94c-3.9,0-7-2.3-9.1-7c-3.4,4.6-7.2,7-11.4,7c-5.4,0-8-3.9-8-11.8
		c0-6,2.5-11.7,7.4-17c5.4-5.9,11.9-8.9,19.3-8.9c2.8,0,4.8,1,6.1,2.9c1-1.2,1.8-1.8,2.5-1.8c0.3,0,1.2,0.1,2.5,0.4
		c1.4,0.2,2.2,0.4,2.5,0.4c0.3,0,1-0.5,2-1.6c1-1,1.7-1.6,2-1.7l-15.7,29.5c-1.4,2.6-2,4.4-2,5.5c0,1.6,0.9,2.4,2.6,2.4
		c2.6,0,7.9-3.9,15.7-11.6c5.5-5.4,10.2-10.6,14.2-15.4L562.1,66.2z M533,61.4c0-1.9-0.8-2.9-2.5-2.9c-4.7,0-9.6,4.1-14.8,12.4
		c-4.6,7.4-6.8,13.2-6.8,17.5c0,2.6,0.8,4,2.4,4c3.2,0,6.4-2.6,9.5-7.9C529,70.5,533,62.8,533,61.4z"/>
	<path class="st0" d="M608.3,66.2c-1.2,1.4-7.4,8.4-18.5,20.8c-4.3,4.8-8.4,7.2-12.1,7.2c-4.4,0-6.7-2.4-7-7.2
		c-0.1-2.2,0.8-4.6,2.5-7.3l10-15.2c1.1-1.7,1.7-2.9,1.7-3.6c0-0.7-0.6-1.1-1.8-1.1c-3,0-7,2.8-12,8.4c-3.5,4.1-6.5,8.2-8.9,12.4
		c-1,1.9-2.6,4.7-4.6,8.4c-1.4,2.7-2.8,4.1-4,4.1c-0.4,0-1.2-0.2-2.3-0.5c-1.2-0.3-1.9-0.5-2.1-0.5c-0.6,0-2.1,1.2-4.4,3.5
		l18.4-35.2c1-1.9,2.2-2.9,3.6-2.9c0.6,0,1.3,0.2,2.3,0.5c1,0.3,1.6,0.5,1.9,0.5c0.2,0,0.8-0.5,2-1.6c1.2-1,2-1.7,2.5-1.9l-6.1,11.5
		c7.7-6.7,13.7-10.1,18-10.1c3.7,0,5.5,1.8,5.5,5.5c0,1.9-0.8,4.1-2.3,6.5l-11.2,17.4c-1.4,2.2-2.2,3.6-2.2,4.1
		c0,1.4,0.8,2.2,2.5,2.2c2.3,0,5.6-2.4,10-7.2l17.6-19.4L608.3,66.2z"/>
	<path class="st0" d="M676,21.1c0,5.8-4.5,13.5-13.6,23c-8.2,8.7-15.6,14.6-22.1,17.6c-9,16.7-13.6,26-13.6,27.7c0,2,0.8,3,2.5,3
		c2.4,0,6.2-2.4,11.3-7.3c3.6-3.4,9.8-10,18.6-19.8l1,0.8C650.5,77,644,84,640.7,87.2c-5,4.8-9,7.2-11.9,7.2c-2.6,0-4.5-0.6-5.9-1.7
		c-1.4-1.2-2.6-3.3-3.7-6.4c-2.8,3.4-4.6,5.5-5.5,6.1c-1.4,1.1-3.2,1.7-5.4,1.7c-2.4,0-4.5-1.1-6.2-3.3c-1.7-2.2-2.6-4.7-2.6-7.6
		c0-7.5,2.8-13.9,8.5-19.2c5.5-5,12.1-7.6,19.7-7.6c1.9,0,4,1.1,6.1,3.2c5.6-9.6,11.2-17.9,16.7-25c9.2-11.8,16.5-17.8,22-17.8
		C674.8,16.9,676,18.3,676,21.1z M631.3,61.1c0-0.8-0.4-1.5-1.2-2.2c-0.8-0.7-1.6-1-2.4-1c-3.6,0-8.2,4.2-13.7,12.5
		c-5.3,8-7.9,14-7.9,18c0,2.7,0.9,4.1,2.6,4.1c2.2,0,4.3-1.3,6.2-3.8c0.1-0.1,2.2-3.1,6.4-9C628,70.2,631.3,64,631.3,61.1z
		 M670.9,21.9c0-1.8-0.7-2.6-2.2-2.6c-3,0-11.8,12.9-26.4,38.6c8.2-4.9,15.1-11.3,20.8-19.1C668.3,31.6,670.9,26,670.9,21.9z"/>
	<path class="st0" d="M760.2,21.1c0,5.8-4.5,13.5-13.6,23c-8.2,8.7-15.6,14.6-22.1,17.6c-9,16.7-13.6,26-13.6,27.7c0,2,0.8,3,2.5,3
		c2.4,0,6.2-2.4,11.3-7.3c3.6-3.4,9.8-10,18.6-19.8l1,0.8c-9.6,10.8-16.1,17.8-19.4,21c-5,4.8-9,7.2-11.9,7.2
		c-2.6,0-4.5-0.6-5.9-1.7c-1.4-1.2-2.6-3.3-3.7-6.4c-2.8,3.4-4.6,5.5-5.5,6.1c-1.4,1.1-3.2,1.7-5.4,1.7c-2.4,0-4.5-1.1-6.2-3.3
		c-1.7-2.2-2.6-4.7-2.6-7.6c0-7.5,2.8-13.9,8.5-19.2c5.5-5,12.1-7.6,19.7-7.6c1.9,0,4,1.1,6.1,3.2c5.6-9.6,11.2-17.9,16.7-25
		c9.2-11.8,16.5-17.8,22-17.8C759,16.9,760.2,18.3,760.2,21.1z M715.6,61.1c0-0.8-0.4-1.5-1.2-2.2c-0.8-0.7-1.6-1-2.4-1
		c-3.6,0-8.2,4.2-13.7,12.5c-5.3,8-7.9,14-7.9,18c0,2.7,0.9,4.1,2.6,4.1c2.2,0,4.3-1.3,6.2-3.8c0.1-0.1,2.2-3.1,6.4-9
		C712.2,70.2,715.6,64,715.6,61.1z M755.2,21.9c0-1.8-0.7-2.6-2.2-2.6c-3,0-11.8,12.9-26.4,38.6c8.2-4.9,15.1-11.3,20.8-19.1
		C752.6,31.6,755.2,26,755.2,21.9z"/>
	<path class="st0" d="M781.3,66.2c-2.8,4.7-7.5,10.1-14,16.2c-8.5,7.8-15.6,11.6-21.4,11.6c-3,0-5.5-1-7.5-3.1c-2-2-2.9-4.6-2.9-7.6
		c0-7.7,3.4-14.3,10.2-19.8c5.9-4.8,11.6-7.2,17.2-7.2c1.8,0,3.4,0.6,4.8,1.9c1.4,1.3,2,2.8,2,4.7c0,5-3.6,9.2-10.9,12.6
		c-5.5,2.6-10.2,3.8-13.9,3.8c-1.4,3.1-2.2,5.9-2.2,8.4c0,3,1.1,4.4,3.2,4.4c5.3,0,12-3.6,20.2-10.8c6.5-5.7,11.2-11.1,14.3-16
		L781.3,66.2z M763.7,60.7c0-1.8-0.8-2.8-2.5-2.8c-3.8,0-8.9,6.2-15.1,18.6c3.2,0,7-2.1,11.4-6.2C761.6,66.3,763.7,63.1,763.7,60.7z
		"/>
	<path class="st0" d="M826.6,66.2c-7,6.8-14.2,10.4-21.6,10.8c-1.4,3.6-4.7,7.2-9.7,10.8c-5.8,4.2-11.8,6.2-17.8,6.2
		c-1.8,0-3.3-0.7-4.6-2.1c-1.3-1.4-2-2.9-2-4.6c0-4,1.2-8.2,3.5-12.5l8.5-15.7c0.6-1.1,1.5-1.7,2.6-1.7c0.6,0,1.4,0.2,2.5,0.5
		c1.1,0.3,1.7,0.5,2,0.5c0.2,0,0.8-0.5,1.8-1.6c1-1,1.8-1.6,2.4-1.8l-14.3,27.4c-1.1,2.2-1.7,4-1.7,5.4c0,3,1.2,4.6,3.7,4.6
		c5,0,10.2-5.6,15.6-16.9c-2.6-3-3.8-6-3.8-8.8c0-2.6,0.8-5,2.4-7.3c1.8-2.6,4-4,6.4-4c1.8,0,3.3,1,4.7,2.9c1.4,1.9,2.1,4,2.1,6.4
		c0,4.2-1.1,7.8-3.4,10.8c5.4,0,12-3.4,19.7-10.1L826.6,66.2z M803.5,63.5c0-3.6-1-5.4-2.9-5.4c-1.5,0-2.8,0.9-3.9,2.8
		c-1.1,1.8-1.7,3.8-1.7,5.9c0,2.1,1.1,4.5,3.4,7.2C801.8,68.2,803.5,64.7,803.5,63.5z"/>
	<path class="st0" d="M863.5,66.2c-2.8,4.7-7.5,10.1-14,16.2C841,90.1,833.9,94,828.1,94c-3,0-5.5-1-7.5-3.1c-2-2-2.9-4.6-2.9-7.6
		c0-7.7,3.4-14.3,10.2-19.8c5.9-4.8,11.6-7.2,17.2-7.2c1.8,0,3.4,0.6,4.8,1.9c1.4,1.3,2,2.8,2,4.7c0,5-3.6,9.2-10.9,12.6
		c-5.5,2.6-10.2,3.8-13.9,3.8c-1.4,3.1-2.2,5.9-2.2,8.4c0,3,1.1,4.4,3.2,4.4c5.3,0,12-3.6,20.2-10.8c6.5-5.7,11.2-11.1,14.3-16
		L863.5,66.2z M845.9,60.7c0-1.8-0.8-2.8-2.5-2.8c-3.8,0-8.9,6.2-15.1,18.6c3.2,0,7-2.1,11.4-6.2C843.8,66.3,845.9,63.1,845.9,60.7z
		"/>
	<path class="st0" d="M907.9,17.5c-0.1,4.7-2.9,11.2-8.4,19.4c-6.9,10.3-15.7,18.6-26.4,24.8l-5.8,12.6c-2.5,5.4-3.7,10.2-3.7,14.4
		c0,1.9,0.8,2.9,2.5,2.9c3.8,0,8.6-3.5,14.2-10.6c4-5,7.4-10.2,10.3-15.7l1,0.8c-4.5,8-8.3,13.8-11.4,17.5
		c-5.7,6.6-11.4,10.1-17.3,10.3c-2.2,0.1-3.9-0.8-5.2-2.6c-1.3-1.8-1.9-4.3-1.9-7.3c0-6.4,3.4-15.5,10.1-27.4c4.3-7.6,10-15.9,17-25
		c9.7-12.4,16.8-18.6,21.2-18.6c1,0,1.8,0.4,2.6,1.3C907.5,15.3,907.9,16.3,907.9,17.5z M902.8,18.2c0-1.7-0.6-2.5-1.7-2.5
		c-1.8,0-5.9,5.3-12.2,15.8c-6.3,10.6-10.7,19.3-13.3,26.3c6.7-3.9,13.1-10.9,19.2-20.9C900.1,28.3,902.8,22,902.8,18.2z"/>
	<path class="st0" d="M936,66.2c-2.7,3.4-7.6,7-14.8,11c-1.2,0.5-3,1.1-5.4,1.8c-2.5,4.1-5.9,7.6-10.2,10.4c-4.6,3-9.2,4.6-13.6,4.6
		c-2.7,0-5-1.2-6.7-3.6c-1.6-2.2-2.4-4.6-2.4-7.4c0-6.8,2.8-12.9,8.5-18.4c5.6-5.5,11.9-8.2,18.7-8.2c2.8,0,5.1,1.1,7,3.2
		c1.8,2.2,2.8,4.8,2.8,8c0,1.9-0.4,3.8-1.1,5.5c-0.3,0.8-0.9,2.2-1.8,4.1c0.6-0.1,1.8-0.5,3.6-1.3c4.3-2,9.2-5.5,14.5-10.6L936,66.2
		z M912.6,60.7c0-2-1-3-2.9-3c-3.8,0-8.1,4.2-13,12.6c-4.6,7.9-7,13.9-7,18.2c0,2.6,0.8,4,2.3,4c4.2,0,9.1-4.8,14.9-14.4
		c-4.4-1.4-6.6-3.4-6.6-5.9c0-2.6,1.2-3.8,3.7-3.8c1.7,0,2.5,0.8,2.5,2.5c0,1.4-1.1,2.2-3.2,2.4c0.6,2,2.1,3.2,4.6,3.6
		C911,70.2,912.6,64.8,912.6,60.7z"/>
	<path class="st0" d="M980.6,66.2c-4.2,7.2-8.9,13.4-14,18.7c-7.1,7.4-13.6,11.2-19.4,11.2c-2,0-3.8-0.9-5.4-2.8
		c-3,2.1-5.9,3.1-8.5,3.1c-2.7,0-4.4-1.8-5.2-5.4c-3.9,7.1-8.4,16.8-13.4,29.2c-3.5,8.5-6,12.7-7.6,12.7c-1.6,0-3.6-0.5-6-1.6
		l-5,4.4c6-10.4,13.1-23.6,21.4-39.5c6.9-13.3,13.4-25.4,19.4-36.2c0.1-0.1,0.4-0.6,1-1.6c0.6-0.7,1.5-1.1,2.5-1.1
		c0.4,0,1.1,0.2,2.2,0.5c1,0.3,1.7,0.5,1.9,0.5c0.4,0,1.1-0.6,2.2-1.7c1.1-1.1,1.9-1.7,2.3-1.8l-2,4c1.5-1.7,3.5-2.5,6-2.5
		c2.2,0,4.1,1,5.6,2.9c1.5,1.9,2.3,4.3,2.3,7c0,8.8-5.9,17.6-17.6,26.2c1.3,1.5,2.6,2.3,4,2.3c5.4,0,11.6-3.7,18.7-11.2
		c5-5.3,9.6-11.4,13.8-18.2L980.6,66.2z M938.6,89.8c-2-1.9-3.9-2.9-5.6-2.9c-2.1,0-3.1,0.5-3.1,1.4c0,1,0.3,2.1,0.9,3.2
		c0.6,1.1,1.4,1.6,2.3,1.6c1.1,0,2.1-0.3,2.9-0.8c0.2-0.2,0.5-0.5,0.8-0.7C937.4,91.1,938,90.5,938.6,89.8z M953.6,61.4
		c0-1.7-0.8-2.5-2.4-2.5c-3.4,0-7.6,4.2-12.8,12.7c-3.2,5.3-5.6,10-7.3,14.2c0.6-0.2,1.6-0.4,3-0.4c1.1,0,3.1,1,5.9,3.1
		c2.7-3.4,5.6-7.7,8.5-13C951.9,69.1,953.6,64.4,953.6,61.4z"/>
	<path class="st0" d="M1044.5,66.2l-14.6,16.3c-4.1,4.5-6.7,7.2-7.9,8.3c-2.6,2.2-5.2,3.2-7.7,3.2c-2,0-3.7-0.7-5.1-2.1
		c-1.4-1.4-2.1-3.2-2.1-5.3c0-1.4,2.4-5.6,7.2-12.8c4.8-7.2,7.2-11.3,7.2-12.4c0-1.4-0.7-2-2.2-2c-2,0-6.7,4.4-14,13.3
		c-2,3.8-5.4,10-10.1,18.6c-0.6,1.1-1.7,1.7-3.2,1.7c-0.3,0-1-0.2-2.1-0.5c-1.1-0.3-1.7-0.5-1.9-0.5c-0.6,0-2,1.2-4.3,3.5
		c11.9-22,17.9-33.5,17.9-34.4c0-1.1-0.4-1.7-1.3-1.7c-2,0-6.6,3.7-13.7,11c-2.2,2.2-5,6.9-8.6,13.9c-3,5.8-4.9,8.6-5.9,8.6
		c-0.7,0-1.7-0.2-3-0.5c-1.3-0.3-2-0.5-2-0.5c-0.6,0-2,1.2-4.3,3.5L979.3,64c1.6-3,2.6-4.7,2.9-5c0.6-1,1.4-1.6,2.4-1.6
		c0.6,0,1.6,0.1,2.8,0.4c1.2,0.2,1.8,0.4,1.9,0.4c0.3,0,1-0.5,2-1.5c1-1,1.8-1.6,2.3-1.7l-6.1,11.5c6.6-6.7,12.3-10.1,17-10.1
		c3.6,0,5.4,2.8,5.4,8.3c3.7-3.4,6.2-5.6,7.6-6.5c1.8-1.2,4.1-1.8,6.7-1.8c1.4,0,2.7,0.6,3.8,1.8c1.1,1.2,1.7,2.6,1.7,4.1
		c0,0.6-0.7,2-2,4.2L1016,85.3c-1.2,1.9-1.8,3.2-1.8,4c0,1.9,0.8,2.9,2.4,2.9c1.9,0,6-3.5,12.4-10.6l14.5-16.2L1044.5,66.2z"/>
	<path class="st0" d="M1081.4,66.2c-2.8,4.7-7.5,10.1-14,16.2c-8.5,7.8-15.6,11.6-21.4,11.6c-3,0-5.5-1-7.5-3.1
		c-2-2-2.9-4.6-2.9-7.6c0-7.7,3.4-14.3,10.2-19.8c5.9-4.8,11.6-7.2,17.2-7.2c1.8,0,3.4,0.6,4.8,1.9c1.4,1.3,2,2.8,2,4.7
		c0,5-3.6,9.2-10.9,12.6c-5.5,2.6-10.2,3.8-13.9,3.8c-1.4,3.1-2.2,5.9-2.2,8.4c0,3,1.1,4.4,3.2,4.4c5.3,0,12-3.6,20.2-10.8
		c6.5-5.7,11.2-11.1,14.3-16L1081.4,66.2z M1063.8,60.7c0-1.8-0.8-2.8-2.5-2.8c-3.8,0-8.9,6.2-15.1,18.6c3.2,0,7-2.1,11.4-6.2
		C1061.7,66.3,1063.8,63.1,1063.8,60.7z"/>
	<path class="st0" d="M1127.8,66.2c-1.2,1.4-7.4,8.4-18.5,20.8c-4.3,4.8-8.4,7.2-12.1,7.2c-4.4,0-6.7-2.4-7-7.2
		c-0.1-2.2,0.8-4.6,2.5-7.3l10-15.2c1.1-1.7,1.7-2.9,1.7-3.6c0-0.7-0.6-1.1-1.8-1.1c-3,0-7,2.8-12,8.4c-3.5,4.1-6.5,8.2-8.9,12.4
		c-1,1.9-2.6,4.7-4.6,8.4c-1.4,2.7-2.8,4.1-4,4.1c-0.4,0-1.2-0.2-2.3-0.5c-1.2-0.3-1.9-0.5-2.1-0.5c-0.6,0-2.1,1.2-4.4,3.5
		l18.4-35.2c1-1.9,2.2-2.9,3.6-2.9c0.6,0,1.3,0.2,2.3,0.5c1,0.3,1.6,0.5,1.9,0.5c0.2,0,0.8-0.5,2-1.6c1.2-1,2-1.7,2.5-1.9l-6.1,11.5
		c7.7-6.7,13.7-10.1,18-10.1c3.7,0,5.5,1.8,5.5,5.5c0,1.9-0.8,4.1-2.3,6.5l-11.2,17.4c-1.4,2.2-2.2,3.6-2.2,4.1
		c0,1.4,0.8,2.2,2.5,2.2c2.3,0,5.6-2.4,10-7.2l17.6-19.4L1127.8,66.2z"/>
	<path class="st0" d="M1156.1,66.2c-1.2,1.8-5,6.9-11.3,15.1c-6.6,8.5-13.6,12.7-21,12.7c-1.8,0-3.3-0.8-4.5-2.3
		c-1.2-1.5-1.9-3.4-1.9-5.5c0-2.1,0.8-4.8,2.5-8.3l9.4-19.1h-8.8l1.9-1.9h9.6c3.9-2.5,7.5-5.6,10.7-9.4c2-2.4,4.8-6.3,8.3-11.7h1.3
		l-12.1,21.1h9l-0.7,1.9h-9L1127,80.7c-1.8,3-2.6,5.2-2.6,6.4c0,1,0.3,2,1,3c0.7,1,1.4,1.6,2.1,1.6c2.3,0,5.3-1.4,8.9-4.2
		c2.9-2.2,5.3-4.6,7.2-7.1c2.2-2.8,6.1-7.8,11.5-15L1156.1,66.2z"/>
</g>
</svg>
